<svg width="48" height="48" viewBox="0 0 48 48" fill="none" xmlns="http://www.w3.org/2000/svg">
<path d="M29.966 6L30.212 6.012C34.24 6.44 37.266 7.356 40.144 9.358C40.4874 9.59763 40.747 9.93901 40.886 10.334C44.638 20.964 45.632 30.308 43.788 34.894C41.782 38.904 38.576 42 35 42C33.536 42 31.614 40.064 30.344 37.91C31.7617 37.652 33.1654 37.3229 34.55 36.924C34.8027 36.8518 35.0387 36.7305 35.2444 36.5671C35.4502 36.4037 35.6218 36.2013 35.7494 35.9716C35.877 35.7418 35.9581 35.4892 35.9881 35.2281C36.018 34.9671 35.9963 34.7027 35.924 34.45C35.8518 34.1973 35.7305 33.9614 35.5671 33.7556C35.4037 33.5498 35.2013 33.3782 34.9716 33.2506C34.7419 33.123 34.4893 33.0419 34.2282 33.012C33.9671 32.982 33.7027 33.0038 33.45 33.076C26.81 34.976 21.19 34.976 14.55 33.076C14.0398 32.9301 13.4924 32.9929 13.0285 33.2506C12.5645 33.5083 12.2219 33.9397 12.076 34.45C11.9302 34.9603 11.993 35.5076 12.2507 35.9716C12.5083 36.4355 12.9398 36.7781 13.45 36.924C14.884 37.332 16.282 37.664 17.656 37.912C16.386 40.062 14.464 42 13 42C9.42403 42 6.21803 38.904 4.14403 34.742C2.36803 30.308 3.36403 20.962 7.11403 10.334C7.25309 9.93901 7.51262 9.59763 7.85603 9.358C10.734 7.356 13.76 6.44 17.788 6.012C18.1494 5.97346 18.5144 6.03408 18.8438 6.18736C19.1733 6.34064 19.4548 6.58079 19.658 6.882L19.784 7.096L21.086 9.666L21.36 9.634C23.1174 9.454 24.8886 9.454 26.646 9.634L26.914 9.666L28.214 7.098C28.3595 6.80958 28.5726 6.56069 28.8353 6.37261C29.0979 6.18453 29.4021 6.06286 29.722 6.018L29.966 6ZM18 20C17.0442 20 16.1199 20.3422 15.3945 20.9648C14.6692 21.5874 14.1908 22.4492 14.046 23.394L14.01 23.702L14 24L14.01 24.3C14.0684 25.0761 14.3519 25.8183 14.8258 26.4357C15.2997 27.053 15.9435 27.5187 16.6781 27.7757C17.4128 28.0327 18.2064 28.0697 18.9618 27.8823C19.7172 27.695 20.4015 27.2913 20.9309 26.7208C21.4603 26.1502 21.8117 25.4377 21.9422 24.6704C22.0726 23.9031 21.9764 23.1145 21.6653 22.4011C21.3542 21.6877 20.8417 21.0805 20.1907 20.654C19.5396 20.2275 18.7783 20.0002 18 20ZM30 20C29.0442 20 28.1199 20.3422 27.3945 20.9648C26.6692 21.5874 26.1908 22.4492 26.046 23.394L26.01 23.702L26 24L26.01 24.3C26.0684 25.0761 26.3519 25.8183 26.8258 26.4357C27.2998 27.053 27.9435 27.5187 28.6781 27.7757C29.4128 28.0327 30.2064 28.0697 30.9618 27.8823C31.7172 27.695 32.4015 27.2913 32.9309 26.7208C33.4603 26.1502 33.8117 25.4377 33.9422 24.6704C34.0726 23.9031 33.9764 23.1145 33.6653 22.4011C33.3542 21.6877 32.8417 21.0805 32.1907 20.654C31.5396 20.2275 30.7783 20.0002 30 20Z" fill="#7289DA"/>
</svg>
