<svg width="48" height="48" viewBox="0 0 48 48" fill="none" xmlns="http://www.w3.org/2000/svg">
<g clip-path="url(#clip0_192_160)">
<path d="M23.0625 0H24.9375L25.8281 0.046875L27.0703 0.164062L28.1953 0.328125L29.0625 0.492188L30.3516 0.796875L31.2891 1.07812L31.9922 1.3125L32.5547 1.52344L33.2109 1.78125L33.8906 2.08594L34.5938 2.41406L35.2734 2.76562L35.5547 2.92969L35.8359 3.07031L36.2344 3.30469L36.7969 3.65625L37.3125 3.98438L37.7812 4.3125L38.1094 4.54688L38.5312 4.85156L38.8359 5.08594L39.1406 5.34375L39.375 5.53125L39.6328 5.74219L39.9375 6L40.7109 6.72656L40.875 6.86719V6.91406L40.9688 6.96094L41.1094 7.125L41.4609 7.47656L41.625 7.66406L41.8125 7.85156L41.9766 8.03906L42.1875 8.27344L42.3984 8.53125L42.7031 8.90625L43.0312 9.30469L43.3359 9.72656L43.5703 10.0547L43.8516 10.4531L44.0859 10.8047L44.3672 11.25L44.6719 11.7422L44.9297 12.1875L45.2578 12.7969L45.4688 13.1719L45.7266 13.7109L46.0078 14.3203L46.2891 14.9766L46.7109 16.1016L46.875 16.5938L47.2031 17.6953L47.3906 18.4688L47.5781 19.3125L47.7891 20.6016L47.9062 21.6797L47.9531 22.1484L48 22.1016V25.8281L47.9766 25.7812H47.9297V26.0391L47.7656 27.5391L47.6719 28.1484L47.4141 29.4844L47.2266 30.2109L46.875 31.4297L46.5469 32.3438L46.2188 33.2109L45.9141 33.8672L45.6328 34.4766L45.375 35.0156L45.0703 35.5547L44.8359 35.9531L44.6953 36.2109L44.4609 36.6094L44.1094 37.125L43.9219 37.4062L43.5703 37.9219L43.3359 38.25L43.1484 38.4844L42.6328 39.1406L42.3516 39.4922L42.1406 39.75L42 39.9141H41.9531L41.9062 40.0078L41.5312 40.4062L41.3203 40.6406L41.2266 40.7578H41.1797L41.1328 40.8516L40.6641 41.3203L40.4766 41.4844L39.7266 42.1875L39.4688 42.3984L39.0703 42.7266L38.7422 42.9844L38.3672 43.2891L38.0391 43.5234L36.7031 44.4141L36.0938 44.7656L35.5078 45.0938L34.9922 45.375L34.3594 45.6797L33.5859 46.0312L33.1406 46.2188L32.1328 46.5938L31.6875 46.7578L31.3594 46.8281H30.9141L30.6328 46.7578L30.375 46.5938L30.1641 46.3594L30.0234 46.0781L29.9531 45.75L29.9297 45V38.8828L29.9062 38.2734L29.8359 37.6172L29.7188 37.0312L29.5547 36.4922L29.4141 36.1172L29.2266 35.7422L29.0391 35.4141L28.7344 35.0156L28.5234 34.7812L28.3594 34.6406V34.5703L28.8281 34.5L29.9531 34.3359L31.0781 34.1016L31.6641 33.9609L32.4141 33.7266L33.0703 33.4688L33.75 33.1641L34.1953 32.9297L34.6641 32.6719L35.1562 32.3672L35.5078 32.1094L35.9062 31.8047L36.2109 31.5234L36.4453 31.3125L36.6797 31.0781L36.8438 30.8906L37.1016 30.5859L37.4297 30.1172L37.6641 29.7422L37.8047 29.4844L38.0625 28.9688L38.3672 28.2422L38.6719 27.3516L38.9062 26.4375L39.0469 25.7109L39.1406 25.1016L39.2344 24.0938L39.2578 23.5781V22.1719L39.2109 21.5859L39.0938 20.7656L38.9297 20.0625L38.6484 19.2188L38.4141 18.6797L38.2266 18.3047L37.9453 17.7891L37.7578 17.5078L37.4766 17.1094L37.2188 16.7812L36.9141 16.4297L36.8438 16.3359L36.8672 16.1719L37.0781 15.5391L37.2188 14.8828L37.2891 14.3906L37.3125 14.1328V13.0781L37.2422 12.3984L37.0781 11.5547L36.8672 10.8047L36.6328 10.1016L36.5625 9.96094L36.1875 9.89062H35.6953L35.2031 9.96094L34.7344 10.0781L34.0312 10.3125L33.4688 10.5469L32.8125 10.8281L32.4375 10.9922L31.9219 11.2734L31.3125 11.6016L30.7734 11.9297L30.375 12.1875L30 12.4219L29.7891 12.375L28.5234 12.0703L27.2812 11.8594L26.7656 11.7891L25.8281 11.6953L24.9844 11.6484L24.3047 11.625H23.6016L22.4297 11.6719L21.1875 11.7891L20.25 11.9297L19.3594 12.0938L18.375 12.3281L18.0938 12.3984L17.9766 12.4219L17.5781 12.1641L16.9922 11.7891L16.6406 11.5781L15.9844 11.2266L15.3984 10.9453L14.4609 10.5469L13.8047 10.2891L13.1719 10.0781L12.5625 9.9375L12.0703 9.89062H11.8125L11.4609 9.9375L11.3906 9.96094L11.1797 10.5469L10.9453 11.3672L10.8281 11.8828L10.7109 12.6094L10.6641 13.2188V13.8516L10.7109 14.4609L10.8281 15.1641L10.9922 15.7734L11.1562 16.2422V16.3594H11.1094L11.0625 16.4531L10.8516 16.6875L10.6641 16.9219L10.4297 17.2266L10.1953 17.5781L10.0312 17.8359L9.72656 18.375L9.49219 18.8672L9.30469 19.3359L9.09375 19.9688L8.92969 20.625L8.83594 21.1172L8.74219 21.9375L8.71875 22.4766V23.0859L8.74219 23.8125L8.83594 24.9375L8.95312 25.7344L9.09375 26.4609L9.32812 27.3516L9.60938 28.1719L9.89062 28.8516L10.1953 29.4844L10.3828 29.8125L10.6172 30.1875L10.8516 30.5156L11.0859 30.8203L11.3438 31.1016L11.5078 31.2891L11.7422 31.5234L11.9297 31.6875L12 31.7344V31.7812L12.0938 31.8281L12.5156 32.1562L12.8906 32.4141L13.3828 32.7188L13.8984 33L14.4609 33.2812L15.1875 33.5859L15.8203 33.8203L16.4766 34.0078L17.6484 34.2656L18.4922 34.4062L19.5234 34.5469L19.6172 34.5938L19.5703 34.6875L19.4531 34.8047L19.1953 35.0859L19.0547 35.2734L18.7734 35.7422L18.5859 36.0938L18.3281 36.8203L18.1172 37.7812L18.0469 37.8516L17.5078 38.0625L16.9453 38.2266L16.3594 38.3438L15.7734 38.4141L15.4219 38.4375H14.625L14.1797 38.3672L13.7812 38.25L13.2891 38.0391L12.8906 37.8047L12.5156 37.5234L12.2109 37.2656L11.9531 37.0078L11.7422 36.75L11.4844 36.4219L11.2266 36.0234L10.9922 35.6484L10.7344 35.2734L10.4297 34.9219L10.0781 34.5703L9.67969 34.2656L9.30469 34.0312L8.8125 33.75L8.48438 33.6094L8.0625 33.4688L7.47656 33.375H7.21875L6.89062 33.3984L6.58594 33.4922L6.44531 33.5859L6.39844 33.6562L6.42188 33.8672L6.63281 34.1953L6.84375 34.4297L7.07812 34.6406L7.73438 35.0625L7.99219 35.2734L8.34375 35.6016L8.55469 35.8594L8.78906 36.1641L9.30469 36.9375L9.70312 37.7109L10.0078 38.4141L10.1953 38.8594L10.3594 39.1406L10.5234 39.3984L10.7812 39.7031L10.9922 39.9375L11.25 40.1484L11.5312 40.3594L11.9531 40.6172L12.3281 40.8047L12.8906 41.0156L13.4062 41.1328L14.3672 41.2734L15.3047 41.3438H16.3594L16.9219 41.2969L17.7656 41.1797L18.0234 41.1562L18.0469 41.1797L18.0703 44.0156V45.75L18 46.0781L17.8359 46.3828L17.7656 46.4766H17.7188L17.6719 46.5703L17.4375 46.7109L17.25 46.7812L17.0625 46.8281H16.6172L16.2891 46.7578L14.9062 46.2422L14.3438 46.0078L13.5 45.6094L12.8438 45.3047L12.2812 44.9766L11.7188 44.6719L11.2031 44.3672L10.5469 43.9219L9.96094 43.5234L9.70312 43.3359L9.32812 43.0312L9 42.7734L8.625 42.4688L8.39062 42.2812L8.10938 42.0234L7.73438 41.6719L7.45312 41.4141L7.14844 41.1328L6.82031 40.8047L6.65625 40.6172L6.32812 40.2656L6.16406 40.0781L5.83594 39.7266L5.50781 39.3281L5.27344 39.0234L4.96875 38.6484L4.73438 38.3438L4.45312 37.9688L4.125 37.4766L3.63281 36.75L3.35156 36.3047L3 35.6719L2.69531 35.1328L2.41406 34.5938L2.03906 33.7969L1.73438 33.1172L1.33594 32.0391L1.10156 31.3828L0.726562 30.0469L0.5625 29.3906L0.328125 28.1719L0.210938 27.3984L0.0703125 26.1562L0.046875 26.0156H0.0234375L0 25.8047V25.7578V22.3125L0.0234375 22.2891L0.1875 20.7422L0.375 19.5703L0.539062 18.75L0.796875 17.6719L1.07812 16.7344L1.26562 16.1484L1.52344 15.4453L1.82812 14.6719L2.13281 14.0156L2.34375 13.5469L2.53125 13.1719L2.92969 12.4219L3.23438 11.8828L3.9375 10.7578L4.24219 10.3125L4.54688 9.89062L4.73438 9.63281L4.96875 9.30469L5.22656 9L5.48438 8.67188L5.74219 8.36719L5.95312 8.10938L6.32812 7.71094L6.375 7.64062H6.42188L6.46875 7.54688L6.67969 7.33594L6.84375 7.14844L7.28906 6.70312L7.47656 6.53906L7.64062 6.375L7.82812 6.21094L8.20312 5.85938L8.4375 5.67188L8.69531 5.46094L9.09375 5.13281L9.49219 4.82812L10.3359 4.21875L10.8984 3.84375L11.4609 3.49219L12.0703 3.11719L12.6094 2.83594L13.1484 2.53125L13.8281 2.20312L14.2969 1.99219L14.8828 1.73438L15.75 1.40625L16.4062 1.17188L17.4844 0.84375L18.4219 0.609375L19.4062 0.398438L20.7188 0.1875L21.8438 0.0703125L23.0625 0Z" fill="black"/>
</g>
<defs>
<clipPath id="clip0_192_160">
<rect width="48" height="48" rx="8" fill="white"/>
</clipPath>
</defs>
</svg>
