<svg width="48" height="48" viewBox="0 0 48 48" fill="none" xmlns="http://www.w3.org/2000/svg">
<path fill-rule="evenodd" clip-rule="evenodd" d="M5.00099 14C3.60384 20.5935 3.60384 27.4065 5.00099 34C5.18457 34.6696 5.53927 35.2798 6.0302 35.7708C6.52114 36.2617 7.13141 36.6164 7.80099 36.8C18.5279 38.5774 29.4741 38.5774 40.201 36.8C40.8706 36.6164 41.4808 36.2617 41.9718 35.7708C42.4627 35.2798 42.8174 34.6696 43.001 34C44.3981 27.4065 44.3981 20.5935 43.001 14C42.8174 13.3304 42.4627 12.7201 41.9718 12.2292C41.4808 11.7383 40.8706 11.3836 40.201 11.2C29.4741 9.42292 18.5279 9.42292 7.80099 11.2C7.13141 11.3836 6.52114 11.7383 6.0302 12.2292C5.53927 12.7201 5.18457 13.3304 5.00099 14ZM30 24L20 30V18L30 24Z" fill="#FF0000"/>
</svg>
